PathFileType  4	(X/Y/Z) C:\Users\antoi\Documents\MyRepositories\mobilecap\ResultsAnalysis
DataRate	CameraRate	NumFrames	NumMarkers	Units	OrigDataRate	OrigDataStartFrame	OrigNumFrames
100.0	100.0	5	51	mm	100.0	73	145
Frame#	Time	r_knee			r_shank_antsup			r_ankle			r_calc			r_5meta			r_toe			L_knee			L_shank_antsup			L_ankle			L_calc			L_5meta			L_toe			r_sh2			r_sh3			r_sh4			L_sh2			L_sh3			r_thigh1			r_thigh2			r_thigh3			r_thigh4			r_thigh5			L_thigh1			L_thigh2			L_thigh3			L_thigh4			r.ASIS			r.PSIS			L.ASIS			L.PSIS			C7			R_Shoulder			L_Shoulder			R_Sternum			L_Sternum			R_humerus			R_elbow_med			R_elbow_lat			R_forearm			R_wrist_radius			R_wrist_ulna			L_humerus			L_elbow_med			L_elbow_lat			L_forearm			L_wrist_radius			L_wrist_ulna			R_HJC			L_HJC			R_HJC_reg			L_HJC_reg			
		X1	Y1	Z1	X2	Y2	Z2	X3	Y3	Z3	X4	Y4	Z4	X5	Y5	Z5	X6	Y6	Z6	X7	Y7	Z7	X8	Y8	Z8	X9	Y9	Z9	X10	Y10	Z10	X11	Y11	Z11	X12	Y12	Z12	X13	Y13	Z13	X14	Y14	Z14	X15	Y15	Z15	X16	Y16	Z16	X17	Y17	Z17	X18	Y18	Z18	X19	Y19	Z19	X20	Y20	Z20	X21	Y21	Z21	X22	Y22	Z22	X23	Y23	Z23	X24	Y24	Z24	X25	Y25	Z25	X26	Y26	Z26	X27	Y27	Z27	X28	Y28	Z28	X29	Y29	Z29	X30	Y30	Z30	X31	Y31	Z31	X32	Y32	Z32	X33	Y33	Z33	X34	Y34	Z34	X35	Y35	Z35	X36	Y36	Z36	X37	Y37	Z37	X38	Y38	Z38	X39	Y39	Z39	X40	Y40	Z40	X41	Y41	Z41	X42	Y42	Z42	X43	Y43	Z43	X44	Y44	Z44	X45	Y45	Z45	X46	Y46	Z46	X47	Y47	Z47	X48	Y48	Z48	X49	Y49	Z49	X50	Y50	Z50	X51	Y51	Z51	

73	0.72000000	496.03846	449.98017	-48.10687	486.02357	365.81205	-70.19097	211.38800	158.43130	-85.54210	134.53869	179.38723	-104.60555	259.39622	46.24561	-99.44372	302.45733	56.13397	-165.63767	779.28397	493.86670	-282.20913	833.78522	409.83134	-271.46010	821.72150	95.62111	-256.74904	747.28497	63.47434	-227.65559	935.88117	44.38193	-261.67731	961.00242	73.40205	-199.80895	394.44036	296.52288	-49.56002	438.82392	423.38045	-32.98773	349.86865	354.33197	-34.52893	748.02029	403.82351	-299.91628	768.86739	283.14588	-302.55701	624.96696	745.92990	-8.78083	600.26761	637.21544	-21.81786	539.73685	624.82056	-0.43614	513.25252	766.81430	7.09491	489.92928	653.69379	-14.41795	713.05416	747.94109	-348.61665	767.20470	626.75178	-310.63176	607.67558	702.64982	-335.09929	670.34982	578.30876	-305.43050	664.17110	924.64419	-32.58789	483.49113	967.32689	-135.45286	697.31280	934.03091	-281.96636	486.08259	976.02678	-235.78887	476.49506	1384.05253	-174.85365	596.72270	1351.17148	-8.50922	541.31242	1350.48222	-359.07904	617.84729	1352.54563	-166.84613	620.58532	1352.64236	-209.01684	646.49444	1224.94927	47.06239	626.22626	1002.12164	30.47207	667.48648	1028.54340	84.33267	776.83938	946.87855	37.90622	854.41929	844.79853	4.82153	858.66390	834.51445	38.83181	541.65191	1239.32234	-424.63824	399.77538	1048.09674	-402.40986	450.97010	1051.02990	-461.35391	464.18045	935.95974	-442.27962	423.55611	782.31191	-453.07969	428.25798	788.55241	-487.60793	590.29436	846.47269	-72.62540	616.90353	858.54736	-277.01932	605.31152	847.52254	-75.57462	609.58631	861.87089	-241.05637	
74	0.73000000	519.49807	447.28953	-44.48570	507.54846	363.47950	-65.56398	225.57578	166.40007	-83.12060	151.97595	194.02788	-101.98853	262.99851	49.25297	-98.88418	307.51430	56.60689	-163.91311	793.24032	494.91328	-281.97283	844.95228	408.87923	-271.22341	823.25892	95.47174	-256.33865	747.86065	63.78852	-227.49549	936.47255	43.25385	-262.14565	961.83726	70.93878	-199.66710	412.93561	298.39001	-45.46173	462.16004	422.94773	-29.76147	370.31409	357.61849	-32.24391	759.53635	405.03498	-300.71071	777.14549	283.96789	-302.98067	641.15187	746.07271	-8.63460	619.41387	636.60720	-19.64598	558.77060	623.02751	1.01703	528.86935	764.67805	5.42984	508.55962	650.97466	-13.77558	728.68644	750.00190	-348.92711	782.15440	628.60494	-310.36524	623.01481	704.20498	-337.71263	685.29490	579.80866	-307.37635	678.00241	924.88459	-33.84637	497.22424	967.10630	-136.16623	711.11929	935.35064	-282.99536	499.73188	976.61910	-236.43317	490.33263	1384.52460	-175.79409	610.70804	1352.03837	-9.71083	555.15352	1350.79057	-360.01495	631.55488	1353.29794	-167.96639	634.39608	1353.32907	-210.14772	660.82643	1225.92300	45.72570	639.52789	1003.19228	29.85657	681.10431	1029.49415	83.55622	790.13428	947.62460	36.55195	867.36254	845.35806	3.12220	871.90133	835.19950	37.13747	555.60468	1239.66475	-425.26432	413.50578	1048.66260	-401.73588	464.35905	1051.34411	-461.12095	477.37829	936.28647	-442.27492	436.53444	782.76900	-452.90317	440.80649	789.01146	-487.45484	604.48681	846.53214	-74.02092	630.91301	859.63764	-278.37301	619.73000	847.20938	-77.41175	623.86363	862.88578	-242.65141	
75	0.74000000	543.87312	444.62702	-40.87328	530.21591	361.43499	-61.17734	241.33487	174.60636	-80.56317	171.51746	208.89507	-99.17190	267.53666	53.31175	-98.23555	313.89070	58.02455	-161.59295	806.40163	495.72014	-281.86009	855.45061	407.83590	-271.13947	824.44043	95.45689	-255.96499	748.20705	63.95601	-227.38578	936.87110	42.67967	-262.60771	962.37326	69.18928	-199.53096	432.92665	300.45123	-41.35674	486.79787	422.56483	-26.45704	392.30750	360.89269	-29.89670	770.35407	406.12585	-301.46884	784.68799	284.71822	-303.34068	657.39790	746.36743	-8.40407	638.76966	636.15111	-17.45770	578.05926	621.29896	2.63654	544.55636	762.42010	3.81900	527.51111	648.11538	-12.97915	743.85349	751.89303	-349.31841	796.48641	630.17983	-310.24428	637.86479	705.70406	-340.28140	699.56168	581.19354	-309.32722	691.47361	925.09700	-35.17460	510.66013	966.87977	-136.83128	724.64957	936.62887	-284.14003	513.08967	977.21538	-237.05001	503.99253	1385.08758	-176.66728	624.42256	1352.89612	-10.76859	568.99038	1351.16863	-360.85235	645.13921	1354.03687	-168.91689	648.08557	1354.02182	-211.13445	674.76457	1226.87936	44.58413	652.58959	1004.23428	29.32812	694.41343	1030.43476	82.92373	803.15322	948.33656	35.46895	880.03681	845.86246	1.78108	884.83610	835.83663	35.81868	569.65623	1240.04829	-425.77750	427.39536	1049.21530	-401.10891	477.93767	1051.67767	-460.89372	490.82983	936.62489	-442.28412	449.90093	783.20951	-452.79118	453.74513	789.46333	-487.36306	618.37031	846.56697	-75.45642	644.57153	860.71389	-279.76576	633.81649	846.86186	-79.34602	637.81814	863.87946	-244.36893	
76	0.75000000	568.96854	442.21735	-37.39698	553.84234	359.81936	-57.13200	258.57271	183.03222	-77.93112	192.81200	223.54450	-96.41970	273.56564	58.53246	-97.37177	322.08009	60.53561	-158.61078	818.49441	496.18051	-281.89047	865.11639	406.65639	-271.21726	825.35697	95.50147	-255.62495	748.40414	64.04178	-227.30675	937.15637	42.43159	-263.00703	962.71723	67.95902	-199.38867	454.23748	302.67989	-37.37573	512.43042	422.43430	-23.22908	415.62204	364.23903	-27.59164	780.26823	407.00932	-302.11232	791.39951	285.32177	-303.60260	673.59134	746.88387	-8.10724	658.18427	635.94735	-15.35764	597.43350	619.72749	4.27005	560.22907	760.15297	2.29567	546.63816	645.25347	-12.17218	758.28273	753.43755	-349.82254	809.93255	631.30463	-310.33392	651.94423	707.11402	-342.64352	712.83601	582.40736	-311.10585	704.56804	925.23776	-36.50585	523.78134	966.65020	-137.44902	737.92305	937.80924	-285.35055	526.17257	977.83183	-237.64206	517.44729	1385.72330	-177.46378	637.82992	1353.72039	-11.65484	582.77759	1351.60147	-361.59065	658.57212	1354.75913	-169.68358	661.61923	1354.72383	-211.95501	688.25129	1227.78469	43.68677	665.39494	1005.19852	28.88754	707.40008	1031.33772	82.43747	815.88674	948.99720	34.66310	892.45656	846.31358	0.81807	897.47522	836.42208	34.89302	583.74159	1240.43295	-426.18026	441.41272	1049.71494	-400.54940	491.68354	1052.01288	-460.68040	504.52415	936.95772	-442.31190	463.65174	783.60543	-452.75905	467.07809	789.89054	-487.34806	631.89369	846.55561	-76.90008	657.87773	861.74401	-281.16098	647.52757	846.42443	-81.34715	651.46264	864.81924	-246.18885	
77	0.76000000	594.59021	440.31819	-34.13536	578.23440	358.76271	-53.47884	277.20173	191.66399	-75.30779	215.41110	237.52521	-94.01610	281.83888	64.91575	-96.04840	332.61564	64.18701	-154.93853	829.35611	496.25664	-282.06443	873.85100	405.33798	-271.44250	826.06982	95.55025	-255.31850	748.51962	64.09398	-227.23779	937.37676	42.33678	-263.31976	962.93888	67.07785	-199.24692	476.66030	305.07390	-33.67034	538.74779	422.76069	-20.21030	439.99754	367.76426	-25.39703	789.15341	407.64925	-302.61165	797.27067	285.74639	-303.76569	689.63724	747.71449	-7.76590	677.55986	636.11557	-13.41006	616.76927	618.42949	5.77396	575.82819	758.01087	0.89014	565.82516	642.56488	-11.49011	771.79345	754.53971	-350.44955	822.33568	631.91107	-310.64620	665.07148	708.43304	-344.67805	724.93468	583.43197	-312.59099	717.30578	925.30487	-37.77016	536.57829	966.45516	-138.03865	750.94609	938.84848	-286.56864	539.00124	978.50066	-238.22599	530.68565	1386.42880	-178.18512	650.90372	1354.50706	-12.34755	596.47735	1352.09028	-362.23969	671.83296	1355.48395	-170.26904	674.97658	1355.45418	-212.59734	701.24454	1228.61902	43.06530	677.92395	1006.05986	28.53184	720.03715	1032.18552	82.09582	828.32377	949.60125	34.14561	904.62858	846.72152	0.25454	909.81374	836.95851	34.37629	597.79794	1240.79963	-426.48550	455.52288	1050.13888	-400.08492	505.57967	1052.34288	-460.49176	518.45445	937.28104	-442.36463	477.78473	783.94293	-452.81459	480.80495	790.28688	-487.41696	645.01948	846.51723	-78.30976	670.83573	862.70640	-282.51522	660.83198	845.88851	-83.36393	664.81574	865.68888	-248.06510	
